HIERARCHY
ROOT hip
{
	OFFSET 0.000000 0.000000 0.000000 
	CHANNELS 6 Xposition Yposition Zposition Xrotation Zrotation Yrotation
	JOINT abdomen
	{
		OFFSET 0.000000 3.402643 0.000000 
		CHANNELS 3 Xrotation Zrotation Yrotation
		JOINT chest
		{
			OFFSET 0.000000 8.438565 -0.680529 
			CHANNELS 3 Xrotation Zrotation Yrotation
			JOINT neck
			{
				OFFSET 0.000000 10.207942 -0.272212 
				CHANNELS 3 Xrotation Zrotation Yrotation
				JOINT head
				{
					OFFSET 0.000000 3.130431 0.000000 
					CHANNELS 3 Xrotation Zrotation Yrotation
					End Site
					{
						OFFSET 0.000000 3.130435 0.000000 
					}
				}
			}
			JOINT lCollar
			{
				OFFSET 3.470700 6.669187 -0.816635 
				CHANNELS 3 Yrotation Zrotation Xrotation
				JOINT lShldr
				{
					OFFSET 3.198488 0.000000 0.000000 
					CHANNELS 3 Zrotation Yrotation Xrotation
					JOINT lForeArm
					{
						OFFSET 10.139888 0.000000 0.000000 
						CHANNELS 3 Yrotation Zrotation Xrotation
						JOINT lHand
						{
							OFFSET 8.370511 0.000000 0.000000 
							CHANNELS 3 Zrotation Yrotation Xrotation
							End Site
							{
								OFFSET 4.083176 0.000000 0.000000 
							}
						}
					}
				}
			}
			JOINT rCollar
			{
				OFFSET -3.470700 6.669187 -0.816635 
				CHANNELS 3 Yrotation Zrotation Xrotation
				JOINT rShldr
				{
					OFFSET -3.198488 0.000000 0.000000 
					CHANNELS 3 Zrotation Yrotation Xrotation
					JOINT rForeArm
					{
						OFFSET -10.139888 0.000000 0.000000 
						CHANNELS 3 Yrotation Zrotation Xrotation
						JOINT rHand
						{
							OFFSET -8.370511 0.000000 0.000000 
							CHANNELS 3 Zrotation Yrotation Xrotation
							End Site
							{
								OFFSET -4.083176 0.000000 0.000000 
							}
						}
					}
				}
			}
		}
	}
	JOINT lThigh
	{
		OFFSET 5.308129 -1.633274 1.361059 
		CHANNELS 3 Xrotation Zrotation Yrotation
		JOINT lShin
		{
			OFFSET -2.041588 -20.007561 0.000000 
			CHANNELS 3 Xrotation Zrotation Yrotation
			JOINT lFoot
			{
				OFFSET 0.000000 -19.190928 -1.224953 
				CHANNELS 3 Xrotation Yrotation Zrotation
				End Site
				{
					OFFSET 0.000000 -2.449906 4.627600 
				}
			}
		}
	}
	JOINT rThigh
	{
		OFFSET -5.308129 -1.633274 1.361059 
		CHANNELS 3 Xrotation Zrotation Yrotation
		JOINT rShin
		{
			OFFSET 2.041588 -20.007561 0.000000 
			CHANNELS 3 Xrotation Zrotation Yrotation
			JOINT rFoot
			{
				OFFSET 0.000000 -19.190928 -1.224953 
				CHANNELS 3 Xrotation Yrotation Zrotation
				End Site
				{
					OFFSET 0.000000 -2.449906 4.627600 
				}
			}
		}
	}
}
MOTION
Frames: 6
Frame Time: 0.033333
0.963213 50.003242 1.891625 -0.688686 -0.234328 -1.142609 0.000000 0.000000 0.000000 -1.602881 -0.117180 0.644530 6.887702 0.410146 0.410216 8.141566 -0.791010 0.214823 0.394893 10.844806 -0.905861 -15.383809 2.398138 -18.048420 -5.371316 -6.665610 16.617054 15.152656 -4.575483 -4.439355 1.467188 -9.104519 -0.849054 9.270132 -8.250258 -25.787483 0.063567 5.322099 12.375216 -13.756492 7.591526 -4.664456 5.201274 11.001299 8.163022 6.516565 -2.176471 6.380966 -8.372204 0.308918 -4.400200 5.917049 -11.738112 -11.721245 1.772164 2.851017 0.665429 -4.655985 -0.177351 4.899204 
0.968500 49.999969 1.898309 -0.638643 -0.283142 -1.191440 0.000000 0.000000 0.000000 -1.641544 -0.078120 0.673827 6.877797 0.410147 0.390685 8.220166 -0.859371 0.165997 0.491792 10.823499 -0.955642 -15.376447 2.248962 -18.182013 -5.325115 -6.598208 16.675713 15.412698 -4.508023 -4.447627 1.401241 -9.075565 -0.898822 9.267312 -8.167894 -25.750790 0.058857 5.314851 12.551122 -13.761962 7.657846 -4.681406 5.124167 11.041602 8.184974 6.631450 -2.184079 6.471460 -8.411321 0.337048 -4.452022 6.171112 -11.629958 -11.737217 1.171471 2.877630 0.549150 -4.342950 -0.173672 5.044448 
0.975060 50.003021 1.905383 -0.628674 -0.292905 -1.191441 0.000000 0.000000 0.000000 -1.689340 0.009765 0.664064 6.974121 0.195307 0.429718 8.046606 -0.527344 0.029296 0.462300 10.491757 -0.984400 -15.060229 2.078567 -18.165871 -4.881961 -6.585210 17.002743 15.404150 -4.674546 -4.471282 1.516963 -9.576035 -0.919570 9.872643 -8.289689 -25.861334 0.050404 5.215415 12.666980 -13.815275 7.722496 -4.694224 5.131416 11.008595 8.152137 6.545659 -2.166660 6.516304 -8.380910 0.332189 -4.453903 6.491949 -11.570208 -11.781469 0.506145 2.880931 0.448631 -3.992412 -0.161293 5.171202 
1.000368 50.023785 1.899476 -0.570290 -0.302677 -1.113317 0.000000 0.000000 0.000000 -1.728319 0.019530 0.576175 7.031809 0.068357 0.468761 8.105522 -0.078125 -0.039076 0.337112 10.190982 -1.022810 -14.846146 2.155019 -18.049614 -4.816002 -6.676627 17.084328 15.242508 -4.743918 -4.472807 1.250520 -9.632097 -0.988678 10.044502 -7.920022 -25.918629 0.057266 5.257833 12.707611 -13.843956 7.710625 -4.695911 5.200580 10.891780 8.011926 6.147060 -2.049030 6.700111 -8.125720 0.345467 -4.455382 6.706827 -11.521183 -11.822670 -0.019578 2.897249 0.336958 -3.715801 -0.154634 5.159001 
1.045827 50.045563 1.886658 -0.441563 -0.390550 -1.123088 0.000000 0.000000 0.000000 -1.836350 -0.039060 0.605469 7.121727 0.410148 0.361389 8.114955 -0.273437 0.058593 0.116718 10.595428 -1.112809 -15.597670 2.679466 -17.811691 -6.015940 -6.609366 17.155182 15.139519 -4.370167 -4.414298 1.099855 -8.909131 -1.096388 9.780177 -7.611533 -25.776701 0.053588 5.338381 12.767706 -13.908594 7.500696 -4.676383 5.360680 10.829082 7.919463 5.582494 -1.951971 6.852677 -7.869482 0.342944 -4.560724 6.588242 -11.421588 -11.666934 -0.136605 2.803331 0.165834 -3.634853 -0.150080 5.180736 
1.126644 50.083946 1.866847 -0.265658 -0.400315 -1.113322 0.000000 0.000000 0.000000 -2.061495 -0.097652 0.556640 7.365719 0.595698 0.234464 7.939048 -0.263672 0.087890 0.095105 10.693933 -1.302381 -16.693790 2.996227 -17.861786 -7.484720 -6.193252 17.595942 15.038733 -4.012558 -4.370637 1.152645 -8.748403 -1.282683 10.392593 -7.453022 -25.821796 0.066641 5.167294 13.499642 -13.789076 7.627034 -4.678585 5.152668 10.640404 7.655039 5.521901 -1.834937 7.142894 -7.824097 0.291701 -4.304865 6.229116 -11.463410 -11.540162 0.077712 2.712345 -0.102836 -3.630362 -0.202760 5.644990 
